<svg width="100" height="100" viewBox="0 0 100 100" fill="none" xmlns="http://www.w3.org/2000/svg">
<path d="M19.9611 91.3683L57.4541 65.5556L80.0391 50.0064L19.9611 91.3683ZM27.1845 97.8624L87.2515 56.5005C88.4288 55.691 89.3724 54.6927 90.019 53.5726C90.6655 52.4526 91 51.2366 91 50.0064C91 48.7763 90.6655 47.5603 90.019 46.4402C89.3724 45.3201 88.4288 44.3219 87.2515 43.5124L27.1955 2.15046C20.0817 -2.73086 9 1.23629 9 8.64453V91.3683C8.9982 93.0263 9.60383 94.6495 10.7444 96.0437C11.8849 97.4378 13.512 98.5437 15.4308 99.2289C17.3496 99.9142 19.4788 100.15 21.5634 99.9074C23.648 99.665 25.5996 98.955 27.1845 97.8624Z" fill="white"/>
</svg>
