<svg width="100" height="100" viewBox="0 0 100 100" fill="none" xmlns="http://www.w3.org/2000/svg">
<g clip-path="url(#clip0_16_123)">
<path d="M0 20.8333C0 15.308 2.19493 10.0089 6.10194 6.10194C10.0089 2.19493 15.308 0 20.8333 0C26.3587 0 31.6577 2.19493 35.5647 6.10194C39.4717 10.0089 41.6667 15.308 41.6667 20.8333V79.1667C41.6667 84.692 39.4717 89.991 35.5647 93.8981C31.6577 97.8051 26.3587 100 20.8333 100C15.308 100 10.0089 97.8051 6.10194 93.8981C2.19493 89.991 0 84.692 0 79.1667V20.8333ZM58.3333 20.8333C58.3333 15.308 60.5283 10.0089 64.4353 6.10194C68.3423 2.19493 73.6413 0 79.1667 0C84.692 0 89.991 2.19493 93.8981 6.10194C97.8051 10.0089 100 15.308 100 20.8333V79.1667C100 84.692 97.8051 89.991 93.8981 93.8981C89.991 97.8051 84.692 100 79.1667 100C73.6413 100 68.3423 97.8051 64.4353 93.8981C60.5283 89.991 58.3333 84.692 58.3333 79.1667V20.8333Z" fill="white"/>
</g>
<defs>
<clipPath id="clip0_16_123">
<rect width="100" height="100" fill="white"/>
</clipPath>
</defs>
</svg>
