<svg width="100" height="100" viewBox="0 0 100 100" fill="none" xmlns="http://www.w3.org/2000/svg">
<path d="M96.875 21.875C96.0462 21.875 95.2513 22.2042 94.6653 22.7903C94.0792 23.3763 93.75 24.1712 93.75 25V45.3L54.5812 22.575C51.3312 20.6875 46.875 22.8438 46.875 26.925V45.3L7.70625 22.575C4.45625 20.6875 0 22.8438 0 26.925V73.075C0 77.1563 4.45625 79.3125 7.70625 77.425L46.875 54.7V73.075C46.875 77.1563 51.3312 79.3125 54.5812 77.425L93.75 54.7V75C93.75 75.8288 94.0792 76.6237 94.6653 77.2097C95.2513 77.7958 96.0462 78.125 96.875 78.125C97.7038 78.125 98.4987 77.7958 99.0847 77.2097C99.6708 76.6237 100 75.8288 100 75V25C100 24.1712 99.6708 23.3763 99.0847 22.7903C98.4987 22.2042 97.7038 21.875 96.875 21.875ZM53.125 28.9562L89.4 50L53.125 71.0437V28.9562ZM6.25 28.9562L42.525 50L6.25 71.0437V28.9562Z" fill="white"/>
</svg>
