<svg width="100" height="100" viewBox="0 0 100 100" fill="none" xmlns="http://www.w3.org/2000/svg">
<path d="M3.125 21.875C3.9538 21.875 4.74866 22.2042 5.33471 22.7903C5.92076 23.3763 6.25 24.1712 6.25 25V45.3L45.4188 22.575C48.6688 20.6875 53.125 22.8438 53.125 26.925V45.3L92.2938 22.575C95.5438 20.6875 100 22.8438 100 26.925V73.075C100 77.1563 95.5438 79.3125 92.2938 77.425L53.125 54.7V73.075C53.125 77.1563 48.6688 79.3125 45.4188 77.425L6.25 54.7V75C6.25 75.8288 5.92076 76.6237 5.33471 77.2097C4.74866 77.7958 3.9538 78.125 3.125 78.125C2.2962 78.125 1.50134 77.7958 0.915291 77.2097C0.32924 76.6237 0 75.8288 0 75V25C0 24.1712 0.32924 23.3763 0.915291 22.7903C1.50134 22.2042 2.2962 21.875 3.125 21.875ZM46.875 28.9562L10.6 50L46.875 71.0437V28.9562ZM93.75 28.9562L57.475 50L93.75 71.0437V28.9562Z" fill="white"/>
</svg>
