<svg width="50" height="50" viewBox="0 0 50 50" fill="none" xmlns="http://www.w3.org/2000/svg">
<circle cx="25" cy="25" r="25" fill="white"/>
<path d="M27.1875 13.75C27.1871 13.4971 27.1154 13.2495 26.9807 13.0356C26.8459 12.8216 26.6535 12.6501 26.4255 12.5406C26.1976 12.4311 25.9434 12.3882 25.6922 12.4167C25.4409 12.4452 25.2028 12.5441 25.0052 12.7019L18.6547 17.7812H12.4062C12.0499 17.7812 11.7081 17.9228 11.4561 18.1748C11.2041 18.4268 11.0625 18.7686 11.0625 19.125V29.875C11.0625 30.2314 11.2041 30.5732 11.4561 30.8252C11.7081 31.0772 12.0499 31.2187 12.4062 31.2187H18.6547L25.0052 36.2981C25.2028 36.4559 25.4409 36.5547 25.6922 36.5832C25.9434 36.6118 26.1976 36.5688 26.4255 36.4593C26.6535 36.3499 26.8459 36.1783 26.9807 35.9644C27.1154 35.7505 27.1871 35.5028 27.1875 35.25V13.75ZM19.9635 20.1731L24.5 16.545V32.455L19.9635 28.8269C19.7256 28.636 19.4299 28.5318 19.125 28.5312H13.75V20.4687H19.125C19.4299 20.4682 19.7256 20.3639 19.9635 20.1731ZM35.3172 24.5C35.3172 26.0882 35.0044 27.6608 34.3966 29.1281C33.7889 30.5954 32.8981 31.9286 31.7751 33.0516L29.875 31.1515C30.7484 30.278 31.4413 29.241 31.9139 28.0997C32.3866 26.9585 32.6298 25.7353 32.6297 24.5C32.6298 23.2647 32.3866 22.0415 31.9139 20.9002C31.4413 19.7589 30.7484 18.7219 29.875 17.8484L31.7751 15.9484C32.8981 17.0714 33.7889 18.4046 34.3966 19.8719C35.0044 21.3392 35.3172 22.9118 35.3172 24.5Z" fill="black"/>
</svg>
